<svg width="27" height="28" viewBox="0 0 27 28" fill="none" xmlns="http://www.w3.org/2000/svg">
<path d="M22.6667 4.54658C21.4443 3.31182 19.9882 2.33281 18.3835 1.66665C16.7788 1.0005 15.0575 0.66053 13.32 0.666583C6.04 0.666583 0.106667 6.59992 0.106667 13.8799C0.106667 16.2132 0.72 18.4799 1.86667 20.4799L0 27.3333L7 25.4933C8.93333 26.5466 11.1067 27.1066 13.32 27.1066C20.6 27.1066 26.5333 21.1733 26.5333 13.8932C26.5333 10.3599 25.16 7.03992 22.6667 4.54658ZM13.32 24.8666C11.3467 24.8666 9.41333 24.3333 7.72 23.3333L7.32 23.0933L3.16 24.1866L4.26667 20.1333L4 19.7199C2.90366 17.9692 2.32152 15.9456 2.32 13.8799C2.32 7.82658 7.25333 2.89325 13.3067 2.89325C16.24 2.89325 19 4.03992 21.0667 6.11992C22.09 7.13854 22.9009 8.35013 23.4525 9.68448C24.0041 11.0188 24.2854 12.4494 24.28 13.8932C24.3067 19.9466 19.3733 24.8666 13.32 24.8666ZM19.3467 16.6532C19.0133 16.4932 17.3867 15.6933 17.0933 15.5732C16.7867 15.4666 16.5733 15.4132 16.3467 15.7332C16.12 16.0666 15.4933 16.8132 15.3067 17.0266C15.12 17.2533 14.92 17.2799 14.5867 17.1066C14.2533 16.9466 13.1867 16.5866 11.9333 15.4666C10.9467 14.5866 10.2933 13.5066 10.0933 13.1733C9.90667 12.8399 10.0667 12.6666 10.24 12.4932C10.3867 12.3466 10.5733 12.1066 10.7333 11.9199C10.8933 11.7332 10.96 11.5866 11.0667 11.3732C11.1733 11.1466 11.12 10.9599 11.04 10.7999C10.96 10.6399 10.2933 9.01325 10.0267 8.34658C9.76 7.70658 9.48 7.78658 9.28 7.77325H8.64C8.41333 7.77325 8.06667 7.85325 7.76 8.18658C7.46667 8.51992 6.61333 9.31992 6.61333 10.9466C6.61333 12.5733 7.8 14.1466 7.96 14.3599C8.12 14.5866 10.2933 17.9199 13.6 19.3466C14.3867 19.6933 15 19.8933 15.48 20.0399C16.2667 20.2933 16.9867 20.2532 17.56 20.1732C18.2 20.0799 19.52 19.3732 19.7867 18.5999C20.0667 17.8266 20.0667 17.1733 19.9733 17.0266C19.88 16.8799 19.68 16.8132 19.3467 16.6532Z" fill="white"/>
</svg>
