<svg width="27" height="31" viewBox="0 0 27 31" fill="none" xmlns="http://www.w3.org/2000/svg">
<path d="M22.7644 6.74926C22.562 6.6446 22.3648 6.52988 22.1738 6.40551C21.6184 6.03829 21.1091 5.6056 20.6569 5.11676C19.5257 3.82238 19.1032 2.50926 18.9476 1.58988H18.9538C18.8238 0.826758 18.8776 0.333008 18.8857 0.333008H13.7332V20.2568C13.7332 20.5243 13.7332 20.7886 13.7219 21.0499C13.7219 21.0824 13.7188 21.1124 13.7169 21.1474C13.7169 21.1618 13.7169 21.1768 13.7138 21.1918V21.203C13.6595 21.9179 13.4304 22.6084 13.0465 23.2139C12.6627 23.8195 12.1359 24.3214 11.5126 24.6755C10.8629 25.0451 10.1281 25.239 9.3807 25.238C6.98007 25.238 5.03444 23.2805 5.03444 20.863C5.03444 18.4455 6.98007 16.488 9.3807 16.488C9.83512 16.4876 10.2868 16.5591 10.7188 16.6999L10.7251 11.4536C9.41342 11.2842 8.0809 11.3884 6.81155 11.7598C5.54221 12.1311 4.3636 12.7615 3.35007 13.6111C2.46199 14.3828 1.71537 15.3034 1.14382 16.3318C0.92632 16.7068 0.105695 18.2136 0.00631992 20.6593C-0.0561801 22.0474 0.360695 23.4855 0.559445 24.0799V24.0924C0.684445 24.4424 1.16882 25.6368 1.95819 26.6436C2.59472 27.4513 3.34675 28.1608 4.19007 28.7493V28.7368L4.20257 28.7493C6.69694 30.4443 9.46257 30.333 9.46257 30.333C9.94132 30.3136 11.5451 30.333 13.3663 29.4699C15.3863 28.513 16.5363 27.0874 16.5363 27.0874C17.271 26.2356 17.8552 25.2648 18.2638 24.2168C18.7301 22.9911 18.8857 21.5211 18.8857 20.9336V10.3636C18.9482 10.4011 19.7807 10.9518 19.7807 10.9518C19.7807 10.9518 20.9801 11.7205 22.8513 12.2211C24.1938 12.5774 26.0026 12.6524 26.0026 12.6524V7.53738C25.3688 7.60613 24.0819 7.40613 22.7644 6.74926Z" fill="black"/>
</svg>
