<svg width="32" height="33" viewBox="0 0 32 33" fill="none" xmlns="http://www.w3.org/2000/svg">
<path d="M15.9253 0.666547C11.6948 0.68629 7.64431 2.38071 4.65986 5.37916C1.67541 8.3776 -4.60654e-05 12.436 9.49913e-10 16.6665C9.49921e-10 20.91 1.68571 24.9797 4.68629 27.9803C7.68687 30.9808 11.7565 32.6666 16 32.6666C20.2435 32.6666 24.3131 30.9808 27.3137 27.9803C30.3143 24.9797 32 20.91 32 16.6665C32 12.4231 30.3143 8.35342 27.3137 5.35284C24.3131 2.35226 20.2435 0.666547 16 0.666547C15.9751 0.666489 15.9502 0.666489 15.9253 0.666547V0.666547ZM22.5413 10.2985C22.6747 10.2959 22.9693 10.3292 23.1613 10.4852C23.2889 10.596 23.3703 10.7506 23.3893 10.9185C23.4107 11.0425 23.4373 11.3265 23.416 11.5479C23.176 14.0785 22.1333 20.2172 21.6027 23.0505C21.3787 24.2506 20.9373 24.6519 20.5093 24.6905C19.5813 24.7772 18.876 24.0772 17.976 23.4879C16.568 22.5639 15.772 21.9892 14.4053 21.0879C12.8253 20.0479 13.8493 19.4745 14.7493 18.5412C14.9853 18.2959 19.0787 14.5719 19.1587 14.2345C19.168 14.1919 19.1773 14.0345 19.084 13.9519C18.9907 13.8692 18.852 13.8972 18.752 13.9199C18.6107 13.9519 16.3613 15.4399 12.004 18.3799C11.364 18.8199 10.7867 19.0332 10.268 19.0199C9.69733 19.0092 8.59867 18.6985 7.78133 18.4332C6.77867 18.1065 5.98267 17.9345 6.052 17.3812C6.088 17.0932 6.48533 16.7985 7.24267 16.4972C11.9067 14.4652 15.016 13.1252 16.5733 12.4785C21.016 10.6305 21.94 10.3092 22.5413 10.2985V10.2985Z" fill="black"/>
</svg>
