<svg width="24" height="29" viewBox="0 0 24 29" fill="none" xmlns="http://www.w3.org/2000/svg">
<path d="M13.9641 5.6L14.3153 5.95586L15.1824 5.1H13.9641V5.6ZM7.80406 11.68L7.45283 11.3241L7.155 11.6181L7.3919 11.9631L7.80406 11.68ZM10.0841 15L9.6719 15.2831L9.82088 15.5H10.0841V15ZM5.92406 17.08H6.42406V16.58H5.92406V17.08ZM0.324062 17.08V16.58H-0.175938V17.08H0.324062ZM14.8841 10.84L14.558 10.461L13.7202 11.1817L14.8146 11.3352L14.8841 10.84ZM22.0441 4.68L22.3702 5.05903L22.5441 4.90941V4.68H22.0441ZM22.0441 -1.90735e-06H22.5441V-0.500002H22.0441V-1.90735e-06ZM1.84406 -1.90735e-06V-0.500002H1.34406V-1.90735e-06H1.84406ZM1.84406 5.6H1.34406V6.1H1.84406V5.6ZM13.6128 5.24414L7.45283 11.3241L8.1553 12.0359L14.3153 5.95586L13.6128 5.24414ZM7.3919 11.9631L9.6719 15.2831L10.4962 14.7169L8.21623 11.3969L7.3919 11.9631ZM10.0841 15.5H12.6041V14.5H10.0841V15.5ZM12.6041 15.5C14.0623 15.5 15.1878 15.8788 15.9392 16.5043C16.6802 17.1211 17.1041 18.0152 17.1041 19.16H18.1041C18.1041 17.7448 17.5679 16.5589 16.5789 15.7357C15.6004 14.9212 14.2258 14.5 12.6041 14.5V15.5ZM17.1041 19.16C17.1041 21.1309 15.2164 22.74 12.3241 22.74V23.74C15.5117 23.74 18.1041 21.9091 18.1041 19.16H17.1041ZM12.3241 22.74C8.86095 22.74 6.42406 20.385 6.42406 17.08H5.42406C5.42406 20.975 8.34718 23.74 12.3241 23.74V22.74ZM5.92406 16.58H0.324062V17.58H5.92406V16.58ZM-0.175938 17.08C-0.175938 23.8127 5.3048 29.1 12.2841 29.1V28.1C5.82332 28.1 0.824062 23.2273 0.824062 17.08H-0.175938ZM12.2841 29.1C18.85 29.1 23.7041 25.0214 23.7041 19.12H22.7041C22.7041 24.3386 18.4381 28.1 12.2841 28.1V29.1ZM23.7041 19.12C23.7041 16.2592 22.634 14.1979 20.9731 12.7842C19.3303 11.386 17.1477 10.6524 14.9535 10.3448L14.8146 11.3352C16.9004 11.6276 18.8778 12.314 20.325 13.5458C21.7541 14.7621 22.7041 16.5408 22.7041 19.12H23.7041ZM15.2102 11.219L22.3702 5.05903L21.718 4.30097L14.558 10.461L15.2102 11.219ZM22.5441 4.68V-1.90735e-06H21.5441V4.68H22.5441ZM22.0441 -0.500002H1.84406V0.499998H22.0441V-0.500002ZM1.34406 -1.90735e-06V5.6H2.34406V-1.90735e-06H1.34406ZM1.84406 6.1H13.9641V5.1H1.84406V6.1Z" fill="black"/>
</svg>
