<svg width="25" height="29" viewBox="0 0 25 29" fill="none" xmlns="http://www.w3.org/2000/svg">
<path d="M12.7622 7.92L12.3588 7.62458L11.7804 8.41433L12.7593 8.41999L12.7622 7.92ZM18.5622 -1.90735e-06L18.9656 0.295415L19.5481 -0.500002H18.5622V-1.90735e-06ZM12.0022 -1.90735e-06V-0.500002H11.7548L11.6047 -0.303296L12.0022 -1.90735e-06ZM2.60219 12.32L2.99884 12.6244L2.9997 12.6233L2.60219 12.32ZM0.0621877 18.32C0.0621877 24.5063 5.52191 29.1 12.6022 29.1V28.1C5.92247 28.1 1.06219 23.8137 1.06219 18.32H0.0621877ZM12.6022 29.1C19.7954 29.1 25.1822 24.7524 25.1822 18.32H24.1822C24.1822 24.0476 19.409 28.1 12.6022 28.1V29.1ZM25.1822 18.32C25.1822 15.0755 23.8695 12.3467 21.6433 10.431C19.4233 8.52066 16.3223 7.44057 12.7651 7.42001L12.7593 8.41999C16.122 8.43943 18.981 9.45933 20.9911 11.189C22.9948 12.9133 24.1822 15.3645 24.1822 18.32H25.1822ZM13.1656 8.21542L18.9656 0.295415L18.1588 -0.295419L12.3588 7.62458L13.1656 8.21542ZM18.5622 -0.500002H12.0022V0.499998H18.5622V-0.500002ZM11.6047 -0.303296L2.20468 12.0167L2.9997 12.6233L12.3997 0.303292L11.6047 -0.303296ZM2.20553 12.0156C0.819976 13.821 0.0621877 15.9675 0.0621877 18.32H1.06219C1.06219 16.1925 1.7444 14.259 2.99884 12.6244L2.20553 12.0156ZM6.66219 18.28C6.66219 15.6945 9.08845 13.62 12.6022 13.62V12.62C8.75593 12.62 5.66219 14.9455 5.66219 18.28H6.66219ZM12.6022 13.62C14.4571 13.62 15.9588 14.1173 16.9855 14.9359C18.0029 15.7472 18.5822 16.8939 18.5822 18.28H19.5822C19.5822 16.5861 18.8615 15.1528 17.6089 14.1541C16.3656 13.1627 14.6273 12.62 12.6022 12.62V13.62ZM18.5822 18.28C18.5822 19.6226 18.0056 20.7606 16.9855 21.5741C15.9573 22.3939 14.4548 22.9 12.6022 22.9V23.9C14.6296 23.9 16.367 23.3461 17.6089 22.3559C18.8587 21.3594 19.5822 19.9374 19.5822 18.28H18.5822ZM12.6022 22.9C9.08009 22.9 6.66219 20.8989 6.66219 18.28H5.66219C5.66219 21.6611 8.76429 23.9 12.6022 23.9V22.9Z" fill="black"/>
</svg>
