<svg width="23" height="29" viewBox="0 0 23 29" fill="none" xmlns="http://www.w3.org/2000/svg">
<path d="M0.480312 11.6H-0.0196877V12.1H0.480312V11.6ZM6.08031 11.6V12.1H6.58031V11.6H6.08031ZM0.480312 29H-0.0196877V29.5H0.480312V29ZM22.9203 29V29.5H23.4203V29H22.9203ZM22.9203 23.4H23.4203V22.9H22.9203V23.4ZM6.48031 23.4L5.98828 23.3111L5.88185 23.9H6.48031V23.4ZM11.7603 -0.100001C8.30765 -0.100001 5.35548 1.04935 3.26446 3.10876C1.17251 5.1691 -0.0196877 8.10318 -0.0196877 11.6H0.980312C0.980312 8.33682 2.08812 5.6709 3.96616 3.82123C5.84514 1.97065 8.53298 0.899999 11.7603 0.899999V-0.100001ZM0.480312 12.1H6.08031V11.1H0.480312V12.1ZM6.58031 11.6C6.58031 9.83607 7.09078 8.51428 7.95244 7.63494C8.81308 6.75665 10.0826 6.26 11.7203 6.26V5.26C9.87804 5.26 8.32754 5.82335 7.23819 6.93505C6.14985 8.04572 5.58031 9.64393 5.58031 11.6H6.58031ZM11.7203 6.26C13.1845 6.26 14.3794 6.62197 15.195 7.23474C15.9966 7.83707 16.4603 8.70016 16.4603 9.8H17.4603C17.4603 8.37984 16.844 7.22293 15.7957 6.43526C14.7612 5.65802 13.3361 5.26 11.7203 5.26V6.26ZM16.4603 9.8C16.4603 10.6123 16.235 11.2024 15.8629 11.664C15.4822 12.1364 14.9187 12.51 14.1858 12.829C13.4525 13.1482 12.5844 13.3983 11.6222 13.644C10.6744 13.886 9.62146 14.1268 8.5848 14.4187C6.50399 15.0046 4.33987 15.8329 2.7009 17.4798C1.04449 19.1443 -0.0196877 21.586 -0.0196877 25.28H0.980312C0.980312 21.794 1.97614 19.6257 3.40972 18.1852C4.86075 16.7271 6.81663 15.9554 8.85582 15.3813C9.87916 15.0932 10.8862 14.864 11.8696 14.6129C12.8388 14.3654 13.7731 14.0993 14.5849 13.746C15.3969 13.3925 16.121 12.9374 16.6415 12.2916C17.1706 11.6351 17.4603 10.8177 17.4603 9.8H16.4603ZM-0.0196877 25.28V29H0.980312V25.28H-0.0196877ZM0.480312 29.5H22.9203V28.5H0.480312V29.5ZM23.4203 29V23.4H22.4203V29H23.4203ZM22.9203 22.9H6.48031V23.9H22.9203V22.9ZM6.97234 23.4889C7.23209 22.0517 8.22419 21.1172 9.72195 20.3713C11.2411 19.6148 13.1474 19.1142 15.124 18.4758C17.0618 17.8499 19.0442 17.0959 20.5399 15.8276C22.0647 14.5347 23.0603 12.7283 23.0603 10.08H22.0603C22.0603 12.4317 21.196 13.9603 19.8932 15.0649C18.5614 16.1941 16.7489 16.9001 14.8166 17.5242C12.9232 18.1358 10.8846 18.6752 9.27617 19.4762C7.64643 20.2878 6.32854 21.4283 5.98828 23.3111L6.97234 23.4889ZM23.0603 10.08C23.0603 6.97302 21.9405 4.41118 19.9374 2.63124C17.9408 0.857062 15.1129 -0.100001 11.7603 -0.100001V0.899999C14.9277 0.899999 17.4998 1.80294 19.2732 3.37876C21.0401 4.94882 22.0603 7.22698 22.0603 10.08H23.0603Z" fill="black"/>
</svg>
