<svg width="25" height="30" viewBox="0 0 25 30" fill="none" xmlns="http://www.w3.org/2000/svg">
<path d="M20.005 14.72L19.7188 14.31L19.0474 14.7788L19.7711 15.1619L20.005 14.72ZM5.285 14.72L5.51865 15.162L6.25742 14.7716L5.56409 14.3051L5.285 14.72ZM-0.0550003 21.28C-0.0550003 23.8602 1.34822 26.081 3.61718 27.6373C5.88159 29.1905 9.02557 30.1 12.605 30.1V29.1C9.18443 29.1 6.24841 28.2295 4.18282 26.8127C2.12178 25.399 0.945 23.4598 0.945 21.28H-0.0550003ZM12.605 30.1C16.1383 30.1 19.2627 29.2533 21.5198 27.7294C23.7867 26.1988 25.185 23.975 25.185 21.28H24.185C24.185 23.585 23.0033 25.5212 20.9602 26.9006C18.9073 28.2867 15.9917 29.1 12.605 29.1V30.1ZM25.185 21.28C25.185 18.1821 23.0464 15.7644 20.2389 14.2781L19.7711 15.1619C22.4036 16.5556 24.185 18.6979 24.185 21.28H25.185ZM20.2912 15.13C22.5033 13.5857 24.025 11.3686 24.025 8.68H23.025C23.025 10.9514 21.7467 12.8943 19.7188 14.31L20.2912 15.13ZM24.025 8.68C24.025 6.00604 22.7669 3.79291 20.7027 2.26328C18.6484 0.741024 15.8072 -0.100001 12.605 -0.100001V0.899999C15.6428 0.899999 18.2616 1.69897 20.1073 3.06672C21.9431 4.42709 23.025 6.35396 23.025 8.68H24.025ZM12.605 -0.100001C6.14993 -0.100001 1.105 3.5213 1.105 8.68H2.105C2.105 4.31869 6.42007 0.899999 12.605 0.899999V-0.100001ZM1.105 8.68C1.105 11.2973 2.7162 13.5945 5.00591 15.1349L5.56409 14.3051C3.4538 12.8855 2.105 10.8627 2.105 8.68H1.105ZM5.05135 14.278C2.17555 15.798 -0.0550003 18.2527 -0.0550003 21.28H0.945C0.945 18.7873 2.79445 16.602 5.51865 15.162L5.05135 14.278ZM7.185 9.12C7.185 8.20975 7.68158 7.40282 8.62396 6.8015C9.57378 6.19542 10.9537 5.82 12.605 5.82V4.82C10.8163 4.82 9.23622 5.22458 8.08604 5.9585C6.92842 6.69717 6.185 7.79025 6.185 9.12H7.185ZM12.605 5.82C14.2983 5.82 15.6434 6.19621 16.5486 6.79666C17.4418 7.38914 17.905 8.19321 17.905 9.12H18.905C18.905 7.80679 18.2282 6.71085 17.1014 5.96334C15.9866 5.22379 14.4317 4.82 12.605 4.82V5.82ZM17.905 9.12C17.905 9.96909 17.4194 10.7793 16.4881 11.3987C15.5556 12.0188 14.2069 12.42 12.605 12.42V13.42C14.3631 13.42 15.9144 12.9812 17.0419 12.2313C18.1706 11.4807 18.905 10.3909 18.905 9.12H17.905ZM12.605 12.42C11.0238 12.42 9.64151 12.019 8.67048 11.3945C7.69669 10.7681 7.185 9.9563 7.185 9.12H6.185C6.185 10.4037 6.97331 11.4919 8.12952 12.2355C9.28849 12.981 10.8662 13.42 12.605 13.42V12.42ZM6.545 20.8C6.545 19.9905 7.1151 19.1556 8.22985 18.4952C9.33134 17.8426 10.8805 17.42 12.605 17.42V16.42C10.7295 16.42 8.99866 16.8774 7.72015 17.6348C6.4549 18.3844 5.545 19.4895 5.545 20.8H6.545ZM12.605 17.42C14.3545 17.42 15.8816 17.8248 16.9538 18.4644C18.0307 19.1068 18.585 19.9389 18.585 20.8H19.585C19.585 19.4611 18.7193 18.3532 17.4662 17.6056C16.2084 16.8552 14.4955 16.42 12.605 16.42V17.42ZM18.585 20.8C18.585 21.7197 18.0699 22.5354 17.0444 23.1453C16.0097 23.7606 14.4861 24.14 12.605 24.14V25.14C14.6039 25.14 16.3203 24.7394 17.5556 24.0047C18.8001 23.2646 19.585 22.1603 19.585 20.8H18.585ZM12.605 24.14C10.77 24.14 9.22321 23.743 8.15343 23.114C7.08288 22.4845 6.545 21.6642 6.545 20.8H5.545C5.545 22.1358 6.38712 23.2355 7.64657 23.976C8.90679 24.717 10.64 25.14 12.605 25.14V24.14Z" fill="black"/>
</svg>
