<svg width="22" height="28" viewBox="0 0 22 28" fill="none" xmlns="http://www.w3.org/2000/svg">
<path d="M15.1356 5.6L15.5885 5.81189L15.9216 5.1H15.1356V5.6ZM4.65563 28L4.20274 27.7881L3.86968 28.5H4.65563V28ZM10.4556 28V28.5H10.7736L10.9084 28.212L10.4556 28ZM21.3756 4.68L21.8284 4.89204L21.8756 4.79127V4.68H21.3756ZM21.3756 -1.90735e-06H21.8756V-0.500002H21.3756V-1.90735e-06ZM0.655625 -1.90735e-06V-0.500002H0.155625V-1.90735e-06H0.655625ZM0.655625 5.6H0.155625V6.1H0.655625V5.6ZM14.6827 5.38811L4.20274 27.7881L5.10851 28.2119L15.5885 5.81189L14.6827 5.38811ZM4.65563 28.5H10.4556V27.5H4.65563V28.5ZM10.9084 28.212L21.8284 4.89204L20.9228 4.46796L10.0028 27.788L10.9084 28.212ZM21.8756 4.68V-1.90735e-06H20.8756V4.68H21.8756ZM21.3756 -0.500002H0.655625V0.499998H21.3756V-0.500002ZM0.155625 -1.90735e-06V5.6H1.15563V-1.90735e-06H0.155625ZM0.655625 6.1H15.1356V5.1H0.655625V6.1Z" fill="black"/>
</svg>
