<svg width="46" height="30" viewBox="0 0 46 30" fill="none" xmlns="http://www.w3.org/2000/svg">
<path d="M0.70375 8.92H0.20375V9.42H0.70375V8.92ZM9.14375 7.52H9.64375V6.78148L8.95805 7.05576L9.14375 7.52ZM9.14375 29H8.64375V29.5H9.14375V29ZM14.7438 29V29.5H15.2438V29H14.7438ZM14.7438 0.999998H15.2438V0.499998H14.7438V0.999998ZM9.98375 0.999998V0.499998H9.81708L9.68375 0.599998L9.98375 0.999998ZM0.70375 3.4V2.9H0.20375V3.4H0.70375ZM0.70375 9.42C4.18921 9.42 6.85559 8.97378 9.32945 7.98424L8.95805 7.05576C6.63191 7.98622 4.09829 8.42 0.70375 8.42V9.42ZM8.64375 7.52V29H9.64375V7.52H8.64375ZM9.14375 29.5H14.7438V28.5H9.14375V29.5ZM15.2438 29V0.999998H14.2438V29H15.2438ZM14.7438 0.499998H9.98375V1.5H14.7438V0.499998ZM9.68375 0.599998C7.56575 2.1885 4.81038 2.9 0.70375 2.9V3.9C4.91712 3.9 7.92175 3.1715 10.2838 1.4L9.68375 0.599998ZM0.20375 3.4V8.92H1.20375V3.4H0.20375ZM18.0544 15.04C18.0544 23.6018 24.0451 30.1 32.1144 30.1V29.1C24.6637 29.1 19.0544 23.1182 19.0544 15.04H18.0544ZM32.1144 30.1C40.2195 30.1 46.1344 23.9263 46.1344 15.04H45.1344C45.1344 23.4337 39.6093 29.1 32.1144 29.1V30.1ZM46.1344 15.04C46.1344 10.55 44.667 6.76237 42.1641 4.093C39.6597 1.42195 36.1452 -0.100001 32.1144 -0.100001V0.899999C35.8835 0.899999 39.1291 2.31805 41.4346 4.77699C43.7418 7.23762 45.1344 10.77 45.1344 15.04H46.1344ZM32.1144 -0.100001C24.0024 -0.100001 18.0544 6.40113 18.0544 15.04H19.0544C19.0544 6.87887 24.6264 0.899999 32.1144 0.899999V-0.100001ZM24.6544 15.04C24.6544 12.3773 25.4449 10.1803 26.7625 8.65711C28.0754 7.1394 29.9362 6.26 32.1544 6.26V5.26C29.6525 5.26 27.5134 6.2606 26.0062 8.00289C24.5039 9.73965 23.6544 12.1827 23.6544 15.04H24.6544ZM32.1544 6.26C34.3505 6.26 36.1802 7.13769 37.4683 8.65376C38.7621 10.1764 39.5344 12.3742 39.5344 15.04H40.5344C40.5344 12.1858 39.7067 9.74364 38.2304 8.00624C36.7486 6.26231 34.6383 5.26 32.1544 5.26V6.26ZM39.5344 15.04C39.5344 17.6434 38.7634 19.8218 37.4688 21.3407C36.1795 22.8534 34.349 23.74 32.1544 23.74V24.74C34.6398 24.74 36.7492 23.7266 38.2299 21.9893C39.7053 20.2582 40.5344 17.8366 40.5344 15.04H39.5344ZM32.1544 23.74C27.8132 23.74 24.6544 20.2311 24.6544 15.04H23.6544C23.6544 20.6489 27.1355 24.74 32.1544 24.74V23.74Z" fill="black"/>
</svg>
