<svg width="25" height="29" viewBox="0 0 25 29" fill="none" xmlns="http://www.w3.org/2000/svg">
<path d="M12.6022 21.04L13.0053 21.3358L13.585 20.5457L12.6051 20.54L12.6022 21.04ZM6.76219 29L6.35905 28.7042L5.77522 29.5H6.76219V29ZM13.3222 29V29.5H13.5715L13.7215 29.3009L13.3222 29ZM22.2422 17.16L22.6415 17.4609L22.6431 17.4588L22.2422 17.16ZM25.1822 10.64C25.1822 4.49449 19.8034 -0.100001 12.6422 -0.100001V0.899999C19.4009 0.899999 24.1822 5.18551 24.1822 10.64H25.1822ZM12.6422 -0.100001C5.53411 -0.100001 0.0621877 4.20335 0.0621877 10.64H1.06219C1.06219 4.91665 5.91027 0.899999 12.6422 0.899999V-0.100001ZM0.0621877 10.64C0.0621877 13.9285 1.41807 16.6581 3.68017 18.5625C5.93488 20.4607 9.0642 21.5194 12.5993 21.54L12.6051 20.54C9.26017 20.5206 6.36949 19.5193 4.3242 17.7975C2.28631 16.0819 1.06219 13.6315 1.06219 10.64H0.0621877ZM12.1991 20.7442L6.35905 28.7042L7.16533 29.2958L13.0053 21.3358L12.1991 20.7442ZM6.76219 29.5H13.3222V28.5H6.76219V29.5ZM13.7215 29.3009L22.6415 17.4609L21.8428 16.8591L12.9228 28.6991L13.7215 29.3009ZM22.6431 17.4588C24.3303 15.1954 25.1822 12.9731 25.1822 10.64H24.1822C24.1822 12.7069 23.434 14.7246 21.8413 16.8612L22.6431 17.4588ZM18.5822 10.68C18.5822 13.3113 16.2287 15.38 12.6422 15.38V16.38C16.5756 16.38 19.5822 14.0487 19.5822 10.68H18.5822ZM12.6422 15.38C10.8105 15.38 9.30838 14.8744 8.27516 14.0451C7.2501 13.2223 6.66219 12.0642 6.66219 10.68H5.66219C5.66219 12.3758 6.39427 13.8177 7.64921 14.8249C8.89599 15.8256 10.6339 16.38 12.6422 16.38V15.38ZM6.66219 10.68C6.66219 9.33741 7.23873 8.19938 8.2589 7.38594C9.28704 6.56614 10.7896 6.06 12.6422 6.06V5.06C10.6148 5.06 8.87733 5.61385 7.63547 6.60406C6.38564 7.60062 5.66219 9.02259 5.66219 10.68H6.66219ZM12.6422 6.06C16.2398 6.06 18.5822 8.05761 18.5822 10.68H19.5822C19.5822 7.30239 16.5645 5.06 12.6422 5.06V6.06Z" fill="black"/>
</svg>
