<svg width="15" height="28" viewBox="0 0 15 28" fill="none" xmlns="http://www.w3.org/2000/svg">
<path d="M0.469375 7.92H-0.0306249V8.42H0.469375V7.92ZM8.90938 6.52H9.40938V5.78148L8.72368 6.05576L8.90938 6.52ZM8.90938 28H8.40938V28.5H8.90938V28ZM14.5094 28V28.5H15.0094V28H14.5094ZM14.5094 -1.90735e-06H15.0094V-0.500002H14.5094V-1.90735e-06ZM9.74938 -1.90735e-06V-0.500002H9.58271L9.44938 -0.400002L9.74938 -1.90735e-06ZM0.469375 2.4V1.9H-0.0306249V2.4H0.469375ZM0.469375 8.42C3.95483 8.42 6.62122 7.97378 9.09507 6.98424L8.72368 6.05576C6.39753 6.98622 3.86392 7.42 0.469375 7.42V8.42ZM8.40938 6.52V28H9.40938V6.52H8.40938ZM8.90938 28.5H14.5094V27.5H8.90938V28.5ZM15.0094 28V-1.90735e-06H14.0094V28H15.0094ZM14.5094 -0.500002H9.74938V0.499998H14.5094V-0.500002ZM9.44938 -0.400002C7.33137 1.1885 4.576 1.9 0.469375 1.9V2.9C4.68275 2.9 7.68738 2.1715 10.0494 0.399998L9.44938 -0.400002ZM-0.0306249 2.4V7.92H0.969375V2.4H-0.0306249Z" fill="black"/>
</svg>
