<svg width="26" height="28" viewBox="0 0 26 28" fill="none" xmlns="http://www.w3.org/2000/svg">
<path d="M0.0974998 22.6H-0.4025V23.1H0.0974998V22.6ZM15.2975 22.6H15.7975V22.1H15.2975V22.6ZM15.2975 28H14.7975V28.5H15.2975V28ZM20.8975 28V28.5H21.3975V28H20.8975ZM20.8975 22.6V22.1H20.3975V22.6H20.8975ZM25.1775 22.6V23.1H25.6775V22.6H25.1775ZM25.1775 17H25.6775V16.5H25.1775V17ZM20.8975 17H20.3975V17.5H20.8975V17ZM20.8975 -1.90735e-06H21.3975V-0.500002H20.8975V-1.90735e-06ZM15.2975 -1.90735e-06V-0.500002H15.0666L14.9169 -0.324272L15.2975 -1.90735e-06ZM0.0974998 17.84L-0.283091 17.5157L-0.4025 17.6559V17.84H0.0974998ZM7.5775 17L7.19448 16.6786L6.50522 17.5H7.5775V17ZM15.2975 7.8H15.7975V6.4263L14.9145 7.4786L15.2975 7.8ZM15.2975 17V17.5H15.7975V17H15.2975ZM0.0974998 23.1H15.2975V22.1H0.0974998V23.1ZM14.7975 22.6V28H15.7975V22.6H14.7975ZM15.2975 28.5H20.8975V27.5H15.2975V28.5ZM21.3975 28V22.6H20.3975V28H21.3975ZM20.8975 23.1H25.1775V22.1H20.8975V23.1ZM25.6775 22.6V17H24.6775V22.6H25.6775ZM25.1775 16.5H20.8975V17.5H25.1775V16.5ZM21.3975 17V-1.90735e-06H20.3975V17H21.3975ZM20.8975 -0.500002H15.2975V0.499998H20.8975V-0.500002ZM14.9169 -0.324272L-0.283091 17.5157L0.47809 18.1643L15.6781 0.324268L14.9169 -0.324272ZM-0.4025 17.84V22.6H0.5975V17.84H-0.4025ZM7.96052 17.3214L15.6805 8.1214L14.9145 7.4786L7.19448 16.6786L7.96052 17.3214ZM14.7975 7.8V17H15.7975V7.8H14.7975ZM15.2975 16.5H7.5775V17.5H15.2975V16.5Z" fill="black"/>
</svg>
