<svg width="24" height="29" viewBox="0 0 24 29" fill="none" xmlns="http://www.w3.org/2000/svg">
<path d="M7.37344 10.28L6.87409 10.2544L6.84714 10.78H7.37344V10.28ZM7.61344 5.6V5.1H7.13842L7.11409 5.57439L7.61344 5.6ZM21.8134 5.6V6.1H22.3134V5.6H21.8134ZM21.8134 -1.90735e-06H22.3134V-0.500002H21.8134V-1.90735e-06ZM2.73344 -1.90735e-06V-0.500002H2.26189L2.23429 -0.0292621L2.73344 -1.90735e-06ZM2.05344 11.6L1.55429 11.5707L1.54215 11.7779L1.68029 11.9328L2.05344 11.6ZM4.69344 14.56L4.32029 14.8928L4.46941 15.06H4.69344V14.56ZM6.53344 17.56H7.03344V17.06H6.53344V17.56ZM0.933438 17.56V17.06H0.433438V17.56H0.933438ZM12.8934 29.1C19.3559 29.1 24.3134 24.7669 24.3134 18.8H23.3134C23.3134 24.1131 18.911 28.1 12.8934 28.1V29.1ZM24.3134 18.8C24.3134 15.9723 23.1869 13.6902 21.1086 12.1301C19.0484 10.5836 16.0993 9.78 12.4934 9.78V10.78C15.9675 10.78 18.6785 11.5564 20.5083 12.9299C22.32 14.2898 23.3134 16.2677 23.3134 18.8H24.3134ZM12.4934 9.78H7.37344V10.78H12.4934V9.78ZM7.87278 10.3056L8.11278 5.62561L7.11409 5.57439L6.87409 10.2544L7.87278 10.3056ZM7.61344 6.1H21.8134V5.1H7.61344V6.1ZM22.3134 5.6V-1.90735e-06H21.3134V5.6H22.3134ZM21.8134 -0.500002H2.73344V0.499998H21.8134V-0.500002ZM2.23429 -0.0292621L1.55429 11.5707L2.55258 11.6293L3.23258 0.0292583L2.23429 -0.0292621ZM1.68029 11.9328L4.32029 14.8928L5.06659 14.2272L2.42659 11.2672L1.68029 11.9328ZM4.69344 15.06H12.5734V14.06H4.69344V15.06ZM12.5734 15.06C14.2235 15.06 15.5155 15.4446 16.3821 16.099C17.2324 16.7411 17.7134 17.6709 17.7134 18.88H18.7134C18.7134 17.3691 18.0945 16.1389 16.9847 15.301C15.8914 14.4754 14.3634 14.06 12.5734 14.06V15.06ZM17.7134 18.88C17.7134 20.0077 17.2425 20.9566 16.4166 21.6332C15.5835 22.3157 14.3628 22.74 12.8534 22.74V23.74C14.5441 23.74 16.0034 23.2643 17.0503 22.4068C18.1043 21.5434 18.7134 20.3123 18.7134 18.88H17.7134ZM12.8534 22.74C11.0989 22.74 9.6437 22.1844 8.6332 21.2736C7.62619 20.3659 7.03344 19.0822 7.03344 17.56H6.03344C6.03344 19.3578 6.74068 20.9141 7.96368 22.0164C9.18317 23.1156 10.8879 23.74 12.8534 23.74V22.74ZM6.53344 17.06H0.933438V18.06H6.53344V17.06ZM0.433438 17.56C0.433438 24.0719 5.8945 29.1 12.8934 29.1V28.1C6.37238 28.1 1.43344 23.4481 1.43344 17.56H0.433438Z" fill="black"/>
</svg>
